<?xml version="1.0" encoding="UTF-8" standalone="no"?>
<svg
   xmlns:dc="http://purl.org/dc/elements/1.1/"
   xmlns:cc="http://creativecommons.org/ns#"
   xmlns:rdf="http://www.w3.org/1999/02/22-rdf-syntax-ns#"
   xmlns:svg="http://www.w3.org/2000/svg"
   xmlns="http://www.w3.org/2000/svg"
   xmlns:sodipodi="http://sodipodi.sourceforge.net/DTD/sodipodi-0.dtd"
   xmlns:inkscape="http://www.inkscape.org/namespaces/inkscape"
   viewBox="0 0 87.83 45.36"
   version="1.1"
   id="svg20"
   sodipodi:docname="Asset 12.svg"
   inkscape:version="0.92.3 (2405546, 2018-03-11)">
  <metadata
     id="metadata24">
    <rdf:RDF>
      <cc:Work
         rdf:about="">
        <dc:format>image/svg+xml</dc:format>
        <dc:type
           rdf:resource="http://purl.org/dc/dcmitype/StillImage" />
      </cc:Work>
    </rdf:RDF>
  </metadata>
  <sodipodi:namedview
     pagecolor="#ffffff"
     bordercolor="#666666"
     borderopacity="1"
     objecttolerance="10"
     gridtolerance="10"
     guidetolerance="10"
     inkscape:pageopacity="0"
     inkscape:pageshadow="2"
     inkscape:window-width="1339"
     inkscape:window-height="696"
     id="namedview22"
     showgrid="false"
     inkscape:zoom="3.9052715"
     inkscape:cx="43.915001"
     inkscape:cy="22.68"
     inkscape:window-x="0"
     inkscape:window-y="0"
     inkscape:window-maximized="0"
     inkscape:current-layer="Layer_2" />
  <defs
     id="defs4">
    <style
       id="style2">.cls-1{font-size:26px;fill:#231f20;}.cls-1,.cls-3{font-family:Rajdhani-Bold, Rajdhani;font-weight:700;}.cls-2{font-size:7px;fill:#1f95d2;font-family:Rajdhani-Light, Rajdhani;}.cls-3{font-size:38px;stroke:#fff;stroke-miterlimit:10;}.cls-3,.cls-4{fill:#1d95d3;}.cls-5{fill:#fff;}</style>
  </defs>
  <title
     id="title6">Asset 12</title>
  <g
     id="Layer_2"
     data-name="Layer 2">
    <g
       id="Layer_1-2"
       data-name="Layer 1">
      <g
         aria-label="SPORT"
         transform="translate(19.95 24.54)"
         style="font-weight:700;font-size:26px;font-family:Rajdhani-Bold, Rajdhani;fill:#231f20"
         id="text8">
        <path
           d="m 1.274,-4.264 v -0.52 q 0,-0.546 0.546,-0.546 h 2.21 q 0.546,0 0.546,0.546 v 0.208 q 0,0.988 0.39,1.352 0.39,0.364 1.43,0.364 h 1.222 q 1.014,0 1.404,-0.39 0.416,-0.39 0.416,-1.456 v -0.312 q 0,-0.754 -0.624,-1.144 Q 8.216,-6.578 7.306,-6.656 6.396,-6.734 5.33,-6.942 4.29,-7.176 3.38,-7.514 2.47,-7.878 1.846,-8.892 1.248,-9.932 1.248,-11.544 v -0.91 q 0,-2.028 1.144,-3.146 1.144,-1.118 3.172,-1.118 h 2.6 q 2.054,0 3.198,1.118 1.144,1.118 1.144,3.146 v 0.494 q 0,0.546 -0.546,0.546 H 9.75 q -0.546,0 -0.546,-0.546 v -0.156 q 0,-1.014 -0.39,-1.378 -0.39,-0.364 -1.43,-0.364 H 6.37 q -1.066,0 -1.456,0.416 -0.364,0.39 -0.364,1.56 v 0.494 q 0,1.222 2.132,1.404 2.21,0.182 3.926,0.884 0.91,0.39 1.508,1.404 0.624,0.988 0.624,2.548 v 0.884 q 0,2.028 -1.144,3.146 Q 10.452,0 8.424,0 H 5.59 Q 3.562,0 2.418,-1.118 1.274,-2.236 1.274,-4.264 Z"
           style="font-weight:700;font-size:26px;font-family:Rajdhani-Bold, Rajdhani;fill:#231f20"
           id="path3729" />
        <path
           d="m 18.461625,0 h -2.21 q -0.546,0 -0.546,-0.546 v -15.626 q 0,-0.546 0.546,-0.546 h 6.344 q 2.028,0 3.146,1.118 1.118,1.092 1.118,3.12 v 2.496 q 0,2.028 -1.118,3.146 -1.118,1.092 -3.146,1.092 h -3.276 q -0.312,0 -0.312,0.286 v 4.914 q 0,0.546 -0.546,0.546 z m 0.832,-8.632 h 2.756 q 0.832,0 1.17,-0.338 0.338,-0.364 0.338,-1.17 v -2.184 q 0,-0.832 -0.338,-1.17 -0.338,-0.364 -1.17,-0.364 h -2.756 q -0.286,0 -0.286,0.286 v 4.654 q 0,0.286 0.286,0.286 z"
           style="font-weight:700;font-size:26px;font-family:Rajdhani-Bold, Rajdhani;fill:#231f20"
           id="path3731" />
        <path
           d="m 34.017344,-2.86 h 1.846 q 0.832,0 1.17,-0.338 0.364,-0.364 0.364,-1.196 v -7.93 q 0,-0.832 -0.364,-1.17 -0.338,-0.364 -1.17,-0.364 h -1.846 q -0.832,0 -1.17,0.364 -0.338,0.338 -0.338,1.17 v 7.93 q 0,0.832 0.338,1.196 0.338,0.338 1.17,0.338 z m 2.392,2.86 h -2.912 q -2.054,0 -3.172,-1.092 -1.118,-1.092 -1.118,-3.146 v -8.242 q 0,-2.054 1.118,-3.146 1.118,-1.092 3.172,-1.092 h 2.912 q 2.054,0 3.172,1.092 1.118,1.092 1.118,3.146 v 8.242 q 0,2.054 -1.118,3.146 -1.118,1.092 -3.172,1.092 z"
           style="font-weight:700;font-size:26px;font-family:Rajdhani-Bold, Rajdhani;fill:#231f20"
           id="path3733" />
        <path
           d="m 46.594437,0 h -2.21 q -0.546,0 -0.546,-0.546 v -15.626 q 0,-0.546 0.546,-0.546 h 6.188 q 2.028,0 3.172001,1.118 1.144,1.118 1.144,3.146 v 2.028 q 0,2.938 -2.314,3.9 v 0.104 l 2.781999,5.798 Q 55.590437,0 54.914437,0 h -2.106 q -0.468,0 -0.675999,-0.104 -0.208001,-0.104 -0.338001,-0.442 l -2.6,-5.616 h -1.741999 q -0.312001,0 -0.312001,0.286 v 5.33 q 0,0.546 -0.546,0.546 z m 0.832,-8.814 h 2.548 q 0.832,0 1.222001,-0.338 0.39,-0.364 0.39,-1.144 v -2.028 q 0,-0.806 -0.39,-1.17 -0.390001,-0.364 -1.222001,-0.364 h -2.548 q -0.286,0 -0.286,0.286 V -9.1 q 0,0.286 0.286,0.286 z"
           style="font-weight:700;font-size:26px;font-family:Rajdhani-Bold, Rajdhani;fill:#231f20"
           id="path3735" />
        <path
           d="m 63.231188,0 h -2.184001 q -0.572,0 -0.572,-0.546 v -13.026 q 0,-0.286 -0.285999,-0.286 h -2.964001 q -0.546,0 -0.546,-0.546 v -1.768 q 0,-0.546 0.546,-0.546 h 9.828001 q 0.545999,0 0.545999,0.546 v 1.768 q 0,0.546 -0.545999,0.546 h -2.964001 q -0.311999,0 -0.311999,0.286 v 13.026 q 0,0.546 -0.546,0.546 z"
           style="font-weight:700;font-size:26px;font-family:Rajdhani-Bold, Rajdhani;fill:#231f20"
           id="path3737" />
      </g>
      <g
         aria-label="informacje e-sportowe"
         transform="translate(22.01 31.23)"
         style="font-size:7px;font-family:Rajdhani-Light, Rajdhani;fill:#1f95d2"
         id="text10">
        <path
           d="M 0.56,-4.158 V -4.83 q 0,-0.077 0.07,-0.077 h 0.21 q 0.07,0 0.07,0.077 v 0.672 q 0,0.084 -0.07,0.084 H 0.63 q -0.07,0 -0.07,-0.084 z m 0,4.074 v -3.402 q 0,-0.084 0.07,-0.084 h 0.203 q 0.077,0 0.077,0.084 v 3.402 Q 0.91,0 0.84,0 H 0.63 Q 0.56,0 0.56,-0.084 Z"
           style="font-size:7px;font-family:Rajdhani-Light, Rajdhani;fill:#1f95d2"
           id="path3740" />
        <path
           d="m 2.2745625,0 h -0.203 q -0.07,0 -0.07,-0.084 v -3.402 q 0,-0.084 0.07,-0.084 h 0.203 q 0.077,0 0.077,0.084 v 0.28 h 0.028 q 0.196,-0.364 0.728,-0.364 h 0.462 q 0.448,0 0.707,0.266 0.259,0.266 0.259,0.728 v 2.492 q 0,0.084 -0.07,0.084 h -0.203 q -0.077,0 -0.077,-0.084 v -2.478 q 0,-0.329 -0.168,-0.511 -0.168,-0.182 -0.49,-0.182 h -0.455 q -0.336,0 -0.532,0.182 -0.189,0.175 -0.189,0.504 v 2.485 q 0,0.084 -0.077,0.084 z"
           style="font-size:7px;font-family:Rajdhani-Light, Rajdhani;fill:#1f95d2"
           id="path3742" />
        <path
           d="m 6.29125,-3.57 h 0.637 q 0.084,0 0.084,0.077 v 0.161 q 0,0.077 -0.084,0.077 h -0.637 q -0.063,0 -0.063,0.063 v 3.108 Q 6.22825,0 6.15125,0 h -0.203 q -0.077,0 -0.077,-0.084 v -3.108 q 0,-0.063 -0.063,-0.063 h -0.448 q -0.077,0 -0.077,-0.077 v -0.161 q 0,-0.077 0.077,-0.077 h 0.448 q 0.063,0 0.063,-0.063 v -0.308 q 0,-0.98 0.889,-0.98 h 0.168 q 0.084,0 0.084,0.077 v 0.161 q 0,0.077 -0.084,0.077 h -0.133 q -0.315,0 -0.441,0.168 -0.126,0.168 -0.126,0.511 v 0.294 q 0,0.063 0.063,0.063 z"
           style="font-size:7px;font-family:Rajdhani-Light, Rajdhani;fill:#1f95d2"
           id="path3744" />
        <path
           d="m 9.1873906,0 h -0.602 q -0.455,0 -0.721,-0.266 -0.259,-0.266 -0.259,-0.728 v -1.582 q 0,-0.462 0.259,-0.728 0.266,-0.266 0.721,-0.266 h 0.602 q 0.455,0 0.721,0.266 0.2660004,0.266 0.2660004,0.728 v 1.582 q 0,0.462 -0.2660004,0.728 -0.266,0.266 -0.721,0.266 z m -0.574,-0.315 h 0.546 q 0.322,0 0.49,-0.175 0.175,-0.182 0.175,-0.511 v -1.568 q 0,-0.329 -0.175,-0.504 -0.168,-0.182 -0.49,-0.182 h -0.546 q -0.322,0 -0.49,0.182 -0.168,0.175 -0.168,0.504 v 1.568 q 0,0.329 0.168,0.511 0.168,0.175 0.49,0.175 z"
           style="font-size:7px;font-family:Rajdhani-Light, Rajdhani;fill:#1f95d2"
           id="path3746" />
        <path
           d="m 11.421047,0 h -0.203 q -0.07,0 -0.07,-0.084 v -3.402 q 0,-0.084 0.07,-0.084 h 0.203 q 0.077,0 0.077,0.084 v 0.294 h 0.028 q 0.077,-0.147 0.273,-0.259 0.196,-0.119 0.483,-0.119 h 0.273 q 0.077,0 0.077,0.077 v 0.168 q 0,0.077 -0.077,0.07 h -0.329 q -0.343,0 -0.539,0.21 -0.189,0.21 -0.189,0.567 v 2.394 q 0,0.084 -0.077,0.084 z"
           style="font-size:7px;font-family:Rajdhani-Light, Rajdhani;fill:#1f95d2"
           id="path3748" />
        <path
           d="m 13.608547,0 h -0.203 q -0.07,0 -0.07,-0.084 v -3.402 q 0,-0.084 0.07,-0.084 h 0.203 q 0.077,0 0.077,0.084 v 0.28 h 0.028 q 0.203,-0.364 0.742,-0.364 h 0.287 q 0.616,0 0.854,0.49 0.105,-0.245 0.357,-0.364 0.252,-0.126 0.518,-0.126 h 0.259 q 0.455,0 0.714,0.266 0.259,0.266 0.259,0.728 v 2.492 q 0,0.084 -0.077,0.084 h -0.203 q -0.077,0 -0.077,-0.084 v -2.478 q 0,-0.336 -0.168,-0.511 -0.168,-0.182 -0.49,-0.182 h -0.259 q -0.336,0 -0.532,0.196 -0.196,0.189 -0.196,0.518 v 2.457 q 0,0.084 -0.077,0.084 h -0.203 q -0.077,0 -0.077,-0.084 v -2.478 q 0,-0.336 -0.168,-0.511 -0.168,-0.182 -0.49,-0.182 h -0.28 q -0.336,0 -0.532,0.182 -0.189,0.175 -0.189,0.504 v 2.485 q 0,0.084 -0.077,0.084 z"
           style="font-size:7px;font-family:Rajdhani-Light, Rajdhani;fill:#1f95d2"
           id="path3750" />
        <path
           d="m 20.080266,0 h -0.448 q -0.455,0 -0.721,-0.266 -0.259,-0.266 -0.259,-0.728 v -1.582 q 0,-0.462 0.259,-0.728 0.266,-0.266 0.721,-0.266 h 1.484 q 0.07,0 0.07,0.084 v 3.402 q 0,0.084 -0.07,0.084 h -0.203 q -0.077,0 -0.077,-0.084 v -0.28 h -0.028 Q 20.626266,0 20.080266,0 Z m 0.756,-1.001 v -2.191 q 0,-0.063 -0.07,-0.063 h -1.106 q -0.322,0 -0.49,0.182 -0.168,0.182 -0.168,0.511 v 1.554 q 0,0.329 0.168,0.511 0.168,0.182 0.49,0.182 h 0.455 q 0.336,0 0.525,-0.175 0.196,-0.182 0.196,-0.511 z"
           style="font-size:7px;font-family:Rajdhani-Light, Rajdhani;fill:#1f95d2"
           id="path3752" />
        <path
           d="m 24.230937,-0.238 v 0.161 q 0,0.077 -0.077,0.077 h -1.008001 q -0.455,0 -0.721,-0.266 -0.259,-0.266 -0.259,-0.728 v -1.582 q 0,-0.462 0.259,-0.728 0.266,-0.266 0.721,-0.266 h 1.008001 q 0.077,0 0.077,0.077 v 0.168 q 0,0.07 -0.077,0.07 h -0.980001 q -0.322,0 -0.49,0.182 -0.168,0.182 -0.168,0.511 v 1.554 q 0,0.329 0.168,0.511 0.168,0.182 0.49,0.182 h 0.980001 q 0.077,0 0.077,0.077 z"
           style="font-size:7px;font-family:Rajdhani-Light, Rajdhani;fill:#1f95d2"
           id="path3754" />
        <path
           d="M 25.032656,-4.158 V -4.83 q 0,-0.077 0.07,-0.077 h 0.21 q 0.07,0 0.07,0.077 v 0.672 q 0,0.084 -0.07,0.084 h -0.21 q -0.07,0 -0.07,-0.084 z m -0.637,5.138 h -0.203 q -0.084,0 -0.084,-0.077 V 0.735 q 0,-0.07 0.084,-0.07 h 0.147 q 0.693,0 0.693,-0.721 v -3.43 q 0,-0.084 0.07,-0.084 h 0.203 q 0.077,0 0.077,0.084 v 3.472 q 0,0.462 -0.266,0.728 -0.266,0.266 -0.721,0.266 z"
           style="font-size:7px;font-family:Rajdhani-Light, Rajdhani;fill:#1f95d2"
           id="path3756" />
        <path
           d="m 28.847219,0 h -1.463 q -0.455,0 -0.721,-0.266 -0.259,-0.266 -0.259,-0.728 v -1.582 q 0,-0.462 0.259,-0.728 0.266,-0.266 0.721,-0.266 h 0.602 q 0.455,0 0.721,0.266 0.266,0.266 0.266,0.728 v 0.889 q 0,0.084 -0.084,0.084 h -2.072 q -0.063,0 -0.063,0.063 v 0.539 q 0,0.329 0.168,0.511 0.168,0.175 0.49,0.175 h 1.435 q 0.077,0 0.077,0.077 v 0.161 q 0,0.077 -0.077,0.077 z m -2.03,-1.883 h 1.743 q 0.063,0 0.063,-0.063 v -0.623 q 0,-0.329 -0.168,-0.504 -0.168,-0.182 -0.49,-0.182 h -0.553 q -0.322,0 -0.49,0.182 -0.168,0.175 -0.168,0.504 v 0.623 q 0,0.063 0.063,0.063 z"
           style="font-size:7px;font-family:Rajdhani-Light, Rajdhani;fill:#1f95d2"
           id="path3758" />
        <path
           d="m 34.165578,0 h -1.463 q -0.455,0 -0.721,-0.266 -0.259,-0.266 -0.259,-0.728 v -1.582 q 0,-0.462 0.259,-0.728 0.266,-0.266 0.721,-0.266 h 0.602 q 0.455,0 0.721,0.266 0.266,0.266 0.266,0.728 v 0.889 q 0,0.084 -0.084,0.084 h -2.072 q -0.063,0 -0.063,0.063 v 0.539 q 0,0.329 0.168,0.511 0.168,0.175 0.49,0.175 h 1.435 q 0.077,0 0.077,0.077 v 0.161 q 0,0.077 -0.077,0.077 z m -2.03,-1.883 h 1.743 q 0.063,0 0.063,-0.063 v -0.623 q 0,-0.329 -0.168,-0.504 -0.168,-0.182 -0.49,-0.182 h -0.553 q -0.322,0 -0.49,0.182 -0.168,0.175 -0.168,0.504 v 0.623 q 0,0.063 0.063,0.063 z"
           style="font-size:7px;font-family:Rajdhani-Light, Rajdhani;fill:#1f95d2"
           id="path3760" />
        <path
           d="m 36.532891,-2.086 h -1.456 q -0.084,0 -0.084,-0.077 v -0.154 q 0,-0.077 0.084,-0.077 h 1.456 q 0.084,0 0.084,0.077 v 0.154 q 0,0.077 -0.084,0.077 z"
           style="font-size:7px;font-family:Rajdhani-Light, Rajdhani;fill:#1f95d2"
           id="path3762" />
        <path
           d="m 38.580391,0 h -1.218 q -0.077,0 -0.077,-0.077 v -0.161 q 0,-0.07 0.077,-0.07 h 1.183 q 0.63,0 0.63,-0.49 v -0.168 q 0,-0.455 -0.392,-0.595 l -0.875,-0.336 q -0.357,-0.14 -0.511,-0.329 -0.147,-0.189 -0.147,-0.525 0,-0.819 0.903,-0.819 h 1.134 q 0.077,0 0.077,0.077 v 0.161 q 0,0.07 -0.077,0.07 h -1.099 q -0.287,0 -0.434,0.126 -0.14,0.126 -0.14,0.294 v 0.161 q 0,0.196 0.105,0.308 0.112,0.112 0.336,0.189 l 0.875,0.35 q 0.364,0.119 0.483,0.357 0.126,0.231 0.126,0.651 0,0.42 -0.238,0.623 -0.231,0.203 -0.721,0.203 z"
           style="font-size:7px;font-family:Rajdhani-Light, Rajdhani;fill:#1f95d2"
           id="path3764" />
        <path
           d="m 40.719875,1.043 h -0.203 q -0.07,0 -0.07,-0.077 v -4.452 q 0,-0.084 0.07,-0.084 h 0.203 q 0.077,0 0.077,0.084 v 0.28 h 0.028 q 0.196,-0.364 0.728,-0.364 h 0.476 q 0.448,0 0.707,0.266 0.259,0.266 0.259,0.728 v 1.582 q 0,0.462 -0.259,0.728 -0.259,0.266 -0.707,0.266 h -0.476 q -0.532,0 -0.728,-0.364 h -0.028 v 1.33 q 0,0.077 -0.077,0.077 z m 0.798,-1.358 h 0.462 q 0.322,0 0.49,-0.175 0.175,-0.182 0.175,-0.518 v -1.554 q 0,-0.336 -0.175,-0.511 -0.168,-0.182 -0.49,-0.182 h -0.462 q -0.336,0 -0.532,0.182 -0.189,0.175 -0.189,0.504 v 1.568 q 0,0.329 0.189,0.511 0.196,0.175 0.532,0.175 z"
           style="font-size:7px;font-family:Rajdhani-Light, Rajdhani;fill:#1f95d2"
           id="path3766" />
        <path
           d="m 45.486219,0 h -0.602 q -0.455,0 -0.721,-0.266 -0.259,-0.266 -0.259,-0.728 v -1.582 q 0,-0.462 0.259,-0.728 0.266,-0.266 0.721,-0.266 h 0.602 q 0.455,0 0.721,0.266 0.266,0.266 0.266,0.728 v 1.582 q 0,0.462 -0.266,0.728 -0.266,0.266 -0.721,0.266 z m -0.574,-0.315 h 0.546 q 0.322,0 0.49,-0.175 0.175,-0.182 0.175,-0.511 v -1.568 q 0,-0.329 -0.175,-0.504 -0.168,-0.182 -0.49,-0.182 h -0.546 q -0.322,0 -0.49,0.182 -0.168,0.175 -0.168,0.504 v 1.568 q 0,0.329 0.168,0.511 0.168,0.175 0.49,0.175 z"
           style="font-size:7px;font-family:Rajdhani-Light, Rajdhani;fill:#1f95d2"
           id="path3768" />
        <path
           d="m 47.719875,0 h -0.203 q -0.07,0 -0.07,-0.084 v -3.402 q 0,-0.084 0.07,-0.084 h 0.203 q 0.077,0 0.077,0.084 v 0.294 h 0.028 q 0.077,-0.147 0.273,-0.259 0.196,-0.119 0.483,-0.119 h 0.273 q 0.077,0 0.077,0.077 v 0.168 q 0,0.077 -0.077,0.07 h -0.329 q -0.343,0 -0.539,0.21 -0.189,0.21 -0.189,0.567 v 2.394 q 0,0.084 -0.077,0.084 z"
           style="font-size:7px;font-family:Rajdhani-Light, Rajdhani;fill:#1f95d2"
           id="path3770" />
        <path
           d="m 49.788375,-3.255 h -0.427 q -0.077,0 -0.077,-0.07 v -0.168 q 0,-0.077 0.077,-0.077 h 0.427 q 0.063,0 0.063,-0.063 V -4.2 q 0,-0.084 0.077,-0.084 h 0.203 q 0.077,0 0.077,0.084 v 0.567 q 0,0.063 0.063,0.063 h 0.833 q 0.077,0 0.077,0.077 v 0.168 q 0,0.07 -0.077,0.07 h -0.833 q -0.063,0 -0.063,0.063 v 2.205 q 0,0.322 0.182,0.497 0.182,0.175 0.511,0.175 h 0.273 q 0.077,0 0.077,0.077 v 0.161 q 0,0.077 -0.077,0.077 h -0.301 q -0.462,0 -0.742,-0.259 -0.28,-0.259 -0.28,-0.714 v -2.219 q 0,-0.063 -0.063,-0.063 z"
           style="font-size:7px;font-family:Rajdhani-Light, Rajdhani;fill:#1f95d2"
           id="path3772" />
        <path
           d="m 53.579969,0 h -0.602 q -0.455,0 -0.721,-0.266 -0.259,-0.266 -0.259,-0.728 v -1.582 q 0,-0.462 0.259,-0.728 0.266,-0.266 0.721,-0.266 h 0.602 q 0.455,0 0.721,0.266 0.266,0.266 0.266,0.728 v 1.582 q 0,0.462 -0.266,0.728 -0.266,0.266 -0.721,0.266 z m -0.574,-0.315 h 0.546 q 0.322,0 0.49,-0.175 0.175,-0.182 0.175,-0.511 v -1.568 q 0,-0.329 -0.175,-0.504 -0.168,-0.182 -0.49,-0.182 h -0.546 q -0.322,0 -0.49,0.182 -0.168,0.175 -0.168,0.504 v 1.568 q 0,0.329 0.168,0.511 0.168,0.175 0.49,0.175 z"
           style="font-size:7px;font-family:Rajdhani-Light, Rajdhani;fill:#1f95d2"
           id="path3774" />
        <path
           d="m 56.513625,0 h -0.28 q -0.07,0 -0.091,-0.084 l -0.98,-3.402 q -0.021,-0.084 0.056,-0.084 h 0.224 q 0.077,0 0.091,0.084 l 0.826,3.045 h 0.035 l 0.812,-3.045 q 0.014,-0.084 0.098,-0.084 h 0.203 q 0.084,0 0.098,0.084 l 0.798,3.045 h 0.035 l 0.833,-3.045 q 0.021,-0.084 0.091,-0.084 h 0.224 q 0.084,0 0.056,0.084 l -0.973,3.402 Q 58.648625,0 58.571625,0 h -0.28 q -0.077,0 -0.098,-0.084 l -0.777,-2.954 h -0.035 l -0.77,2.954 Q 56.590625,0 56.513625,0 Z"
           style="font-size:7px;font-family:Rajdhani-Light, Rajdhani;fill:#1f95d2"
           id="path3776" />
        <path
           d="m 62.698781,0 h -1.463 q -0.455,0 -0.721,-0.266 -0.259,-0.266 -0.259,-0.728 v -1.582 q 0,-0.462 0.259,-0.728 0.266,-0.266 0.721,-0.266 h 0.602 q 0.455,0 0.721,0.266 0.266,0.266 0.266,0.728 v 0.889 q 0,0.084 -0.084,0.084 h -2.072 q -0.063,0 -0.063,0.063 v 0.539 q 0,0.329 0.168,0.511 0.168,0.175 0.49,0.175 h 1.435 q 0.077,0 0.077,0.077 v 0.161 q 0,0.077 -0.077,0.077 z m -2.03,-1.883 h 1.743 q 0.063,0 0.063,-0.063 v -0.623 q 0,-0.329 -0.168,-0.504 -0.168,-0.182 -0.49,-0.182 h -0.553 q -0.322,0 -0.49,0.182 -0.168,0.175 -0.168,0.504 v 0.623 q 0,0.063 0.063,0.063 z"
           style="font-size:7px;font-family:Rajdhani-Light, Rajdhani;fill:#1f95d2"
           id="path3778" />
      </g>
      <g
         aria-label="E"
         transform="translate(2.28 31.72)"
         style="font-weight:700;font-size:38px;font-family:Rajdhani-Bold, Rajdhani;fill:#1d95d3;stroke:#ffffff;stroke-miterlimit:10"
         id="text12">
        <path
           d="M 15.694,0 H 3.268 Q 2.47,0 2.47,-0.798 v -22.838 q 0,-0.798 0.798,-0.798 h 12.426 q 0.76,0 0.76,0.798 v 2.584 q 0,0.798 -0.76,0.798 H 7.752 q -0.456,0 -0.456,0.418 v 4.94 q 0,0.418 0.456,0.418 h 6.498 q 0.798,0 0.798,0.798 v 2.584 q 0,0.798 -0.798,0.798 H 7.752 q -0.456,0 -0.456,0.418 v 5.282 q 0,0.418 0.456,0.418 h 7.942 q 0.76,0 0.76,0.798 v 2.584 Q 16.454,0 15.694,0 Z"
           style="font-weight:700;font-size:38px;font-family:Rajdhani-Bold, Rajdhani;fill:#1d95d3;stroke:#ffffff;stroke-miterlimit:10"
           id="path3781" />
      </g>
      <path
         class="cls-4"
         d="M17.7,22.92,2.44,20.56a4.12,4.12,0,0,1-1.58-.35c-.21-.13-.41-.33-.36-.93l.18-2.87,17.18,1.53c1,1,1.62,1.83,1.54,2.65l-.09,1a1.51,1.51,0,0,1-1.49,1.37Z"
         id="path14" />
      <path
         class="cls-5"
         d="M1.16,17l16.49,1.47c.83.86,1.33,1.52,1.27,2.12l-.09,1a1,1,0,0,1-1,.91h-.06L2.52,20.07H2.46a4,4,0,0,1-1.33-.28c-.07,0-.15-.09-.12-.48L1.16,17M.22,15.87,0,19.24c-.13,1.43.93,1.69,2.36,1.82l15.29,2.36h.18a2,2,0,0,0,2-1.82l.09-1c.1-1.1-.72-2.07-1.82-3.17L.22,15.87Z"
         id="path16" />
    </g>
  </g>
</svg>
