<svg xmlns="http://www.w3.org/2000/svg" viewBox="0 0 87.83 45.36"><defs><style>.cls-1{font-size:26px;fill:#231f20;}.cls-1,.cls-3{font-family:Rajdhani-Bold, Rajdhani;font-weight:700;}.cls-2{font-size:7px;fill:#1f95d2;font-family:Rajdhani-Light, Rajdhani;}.cls-3{font-size:38px;stroke:#fff;stroke-miterlimit:10;}.cls-3,.cls-4{fill:#1d95d3;}.cls-5{fill:#fff;}</style></defs><title>Asset 12</title><g id="Layer_2" data-name="Layer 2"><g id="Layer_1-2" data-name="Layer 1"><text class="cls-1" transform="translate(19.95 25.22)">SPORT</text><text class="cls-2" transform="translate(22.01 31.91)">informacje e-sportowe</text><text class="cls-3" transform="translate(2.28 31.72)">E</text><path class="cls-4" d="M17.7,22.92,2.44,20.56a4.11,4.11,0,0,1-1.58-.35c-.21-.12-.41-.33-.36-.93l.18-2.87,17.18,1.53c1,1,1.62,1.83,1.54,2.65l-.09,1a1.51,1.51,0,0,1-1.49,1.37Z"/><path class="cls-5" d="M1.16,17l16.49,1.47c.83.86,1.33,1.52,1.27,2.12l-.09,1a1,1,0,0,1-1,.91h-.06L2.52,20.07H2.46a4,4,0,0,1-1.33-.28c-.07,0-.15-.09-.12-.48L1.16,17M.22,15.87,0,19.24c-.13,1.43.93,1.69,2.36,1.82l15.29,2.36h.18a2,2,0,0,0,2-1.82l.09-1c.1-1.1-.72-2.07-1.82-3.17L.22,15.87Z"/></g></g></svg>